# xmcd
# 
# Track frame offsets:
#     150
#     24788
#     44769
#     71316
#     93867
#     118521
#     142549
#     166030
#     180814
#     195746
#     213214
#     237235
# 
# Disc length: 3443
# 
# Revision: 1
# Processed by: cddbd v1.5.2PL0 Copyright (c) Steve Scherf et al.
# Submitted via: fre:ac v1.0.27
# 
DISCID=880d710c
DTITLE=Carlos del Junco - Blues Mongrel
DYEAR=2005
DGENRE=Blues
TTITLE0=Blues With a Feeling
TTITLE1=No Particular Place
TTITLE2=Plain Old (Down Home) Blues
TTITLE3=Skatoon
TTITLE4=Don't Bring Me Down
TTITLE5=Our Man Flint
TTITLE6=Run Me Down
TTITLE7=Let's Mambo
TTITLE8=Long Highway
TTITLE9=Blues Mongrel
TTITLE10=Nine Below Zero
TTITLE11=Don't Worry Your Pretty Little Head
EXTD=BluesfestRadio.com
EXTT0=
EXTT1=
EXTT2=
EXTT3=
EXTT4=
EXTT5=
EXTT6=
EXTT7=
EXTT8=
EXTT9=
EXTT10=
EXTT11=
PLAYORDER=
